Coordinates
nRows=11
nColumns=24

# SIMM Motion File Header:
name Coordinates
datacolumns 24
datarows 11
otherdata 1
range 0.43300000000000000000 0.44300000000000000000
endheader
time	pelvis_tx	pelvis_ty	pelvis_tz	pelvis_tilt	pelvis_list	pelvis_rotation	hip_flexion_r	hip_adduction_r	hip_rotation_r	knee_angle_r	ankle_angle_r	subtalar_angle_r	mtp_angle_r	hip_flexion_l	hip_adduction_l	hip_rotation_l	knee_angle_l	ankle_angle_l	subtalar_angle_l	mtp_angle_l	lumbar_extension	lumbar_bending	lumbar_rotation
      0.43300000000000000000	      0.42231585413272843000	      0.82803800384572790000	     -0.28816669243251208000	     -5.68121641789470110000	      0.43756100356044914000	      1.64070164364683780000	     33.07128793032796200000	     -1.26063177645138280000	     13.51675924524682600000	    -16.44086591430127700000	     -3.65596772461701920000	     -0.00000000000001219206	      0.00000000000004310562	     -4.28347845181931500000	      5.76368071000022300000	     -0.55846615955056100000	     -1.87361714924019830000	      7.74708552716585430000	      0.00000000000000536699	      0.00000000000002760115	      8.24197315060928130000	     -2.95062356000302550000	      3.82285131865593140000
      0.43400000000000000000	      0.42335525436065846000	      0.82785923586791499000	     -0.28811492060086497000	     -5.69039183416014890000	      0.42895158351072837000	      1.66801608128063990000	     33.08720398301272100000	     -1.25740742137372120000	     13.55189285764592800000	    -16.21084321341378100000	     -3.70131068541251820000	     -0.00000000000001226308	      0.00000000000004335040	     -4.33060293333308180000	      5.74717936789752760000	     -0.56610188545675955000	     -1.91802349520104600000	      7.80043537112083470000	      0.00000000000000513686	      0.00000000000002846798	      8.25961826435557360000	     -2.96012190515911480000	      3.81279093256414960000
      0.43500000000000000000	      0.42439658814524367000	      0.82768063870385256000	     -0.28806217081672658000	     -5.69904163566658450000	      0.42018877534811450000	      1.69475684388738390000	     33.10299843527867100000	     -1.25408770664919380000	     13.58401584854138400000	    -15.98690305965569000000	     -3.74384902274667830000	     -0.00000000000001233930	      0.00000000000004361184	     -4.37776264309427890000	      5.73012125213103650000	     -0.57523345121842950000	     -1.96349114239678930000	      7.85151799066329390000	      0.00000000000000490847	      0.00000000000002933324	      8.27679874534658390000	     -2.96922173962934190000	      3.80312291733802740000
      0.43600000000000000000	      0.42543856644871386000	      0.82750209847770695000	     -0.28800909504842448000	     -5.70751623225335080000	      0.41137483781453643000	      1.72130638148510950000	     33.11875235407168800000	     -1.25073620537571120000	     13.61513529893563000000	    -15.76499042160739400000	     -3.78545248559372990000	     -0.00000000000001241726	      0.00000000000004387882	     -4.42493409560461790000	      5.71287754514328050000	     -0.58486363026525434000	     -2.00931255667082990000	      7.90184486873491570000	      0.00000000000000468067	      0.00000000000003019797	      8.29382434875249960000	     -2.97818873720428280000	      3.79358569240045810000
      0.43700000000000000000	      0.42648247703508851000	      0.82732380375066361000	     -0.28795514345006062000	     -5.71548518747063210000	      0.40243636425321760000	      1.74729975279499920000	     33.13440309410997700000	     -1.24731029147945090000	     13.64316715688745600000	    -15.54919459169027000000	     -3.82419417861194510000	     -0.00000000000001250024	      0.00000000000004414719	     -4.47210442663110360000	      5.69511306253441240000	     -0.59587760880165919000	     -2.05626025727351220000	      7.95021073154208050000	      0.00000000000000443002	      0.00000000000003115788	      8.31040214556918680000	     -2.98677051304966270000	      3.78441106043619560000
      0.43800000000000000000	      0.42752703171576462000	      0.82714559085665429000	     -0.28790089990834289000	     -5.72328559556475100000	      0.39345637868265187000	      1.77310773534227710000	     33.15001944123001500000	     -1.24385957337559820000	     13.67016981735847400000	    -15.33543769781687300000	     -3.86198194835388040000	     -0.00000000000001258489	      0.00000000000004441602	     -4.51927438382963760000	      5.67717498805183940000	     -0.60735285383459092000	     -2.10358338665240870000	      7.99792292259442660000	      0.00000000000000417176	      0.00000000000003214951	      8.32683067352279770000	     -2.99522388165185480000	      3.77535729279636860000
      0.43900000000000000000	      0.42857230839286814000	      0.82696750883734060000	     -0.28784636816116094000	     -5.73088985012855900000	      0.38441311558394509000	      1.79871466809426180000	     33.16558486672351300000	     -1.24036053672092890000	     13.69598884651467200000	    -15.12396118338501000000	     -3.89864413865315030000	     -0.00000000000001266714	      0.00000000000004468278	     -4.56645262428937570000	      5.65902730718067200000	     -0.61932195893491959000	     -2.15134182203042860000	      8.04533062702813950000	      0.00000000000000390627	      0.00000000000003316015	      8.34308121203645750000	     -3.00350550418648550000	      3.76642418920213370000
      0.44000000000000000000	      0.42961975105925410000	      0.82678981944211372000	     -0.28779097179758634000	     -5.73790564410143220000	      0.37518001990081540000	      1.82371845146036880000	     33.18099752733738200000	     -1.23671654441381110000	     13.71825698172641800000	    -14.91932580727774000000	     -3.93192959062442650000	     -0.00000000000001274216	      0.00000000000004494332	     -4.61365571453272680000	      5.64025080714371980000	     -0.63277264423743740000	     -2.20040617540581530000	      8.09182487160595620000	      0.00000000000000361911	      0.00000000000003422785	      8.35879778223026900000	     -3.01127188851843110000	      3.75785307774467460000
      0.44100000000000000000	      0.43066719372564000000	      0.82661213004688694000	     -0.28773557543401179000	     -5.74492143807430460000	      0.36594692421768571000	      1.84872223482647560000	     33.19641018795125800000	     -1.23307255210669340000	     13.74052511693816400000	    -14.71469043117047100000	     -3.96521504259570270000	     -0.00000000000001281718	      0.00000000000004520387	     -4.66085880477607710000	      5.62147430710676770000	     -0.64622332953995509000	     -2.24947052878120250000	      8.13831911618377290000	      0.00000000000000333195	      0.00000000000003529555	      8.37451435242408060000	     -3.01903827285037660000	      3.74928196628721540000
      0.44200000000000000000	      0.43171682208265821000	      0.82643490093536942000	     -0.28767940250290203000	     -5.75135382508011080000	      0.35645375291633841000	      1.87312077554090430000	     33.21166526454550900000	     -1.22919322610828050000	     13.75915118419613800000	    -14.51692494792264800000	     -3.99497765403579170000	     -0.00000000000001287474	      0.00000000000004544363	     -4.70807893993907540000	      5.60200588041135910000	     -0.66113279399425184000	     -2.29990616763295510000	      8.18591111254009010000	      0.00000000000000303338	      0.00000000000003637333	      8.38969975082712160000	     -3.02617750714304150000	      3.74104666984252490000
      0.44300000000000000000	      0.43276717900322054000	      0.82625782525175506000	     -0.28762297071594728000	     -5.75759174309689660000	      0.34687388974225208000	      1.89731756870477430000	     33.22686781313321100000	     -1.22523545554610310000	     13.77656322880285900000	    -14.32144942896130000000	     -4.02356598529882170000	     -0.00000000000001292648	      0.00000000000004567646	     -4.75530475674195600000	      5.58230681149646560000	     -0.67652851816580684000	     -2.35079890164349510000	      8.23386902615590800000	      0.00000000000000273101	      0.00000000000003745447	      8.40470809196657420000	     -3.03310769142261320000	      3.73292331173542320000
